<svg width="158" height="134" viewBox="0 0 158 134" fill="none" xmlns="http://www.w3.org/2000/svg">
<path d="M8.18731 23.552L2.78731 22.544V17.504H14.1633C15.7953 17.504 17.9553 17.408 20.6433 17.216C21.2193 17.168 21.9393 17.12 22.8033 17.072C23.6673 17.024 24.6753 17 25.8273 17C31.0593 17 35.1633 17.48 38.1393 18.44C41.1153 19.4 43.1793 20.768 44.3313 22.544C45.5313 24.32 46.1313 26.552 46.1313 29.24C46.1313 32.84 45.0033 35.816 42.7473 38.168C40.5393 40.52 37.7073 41.936 34.2513 42.416C39.0513 42.416 42.8193 43.496 45.5553 45.656C48.3393 47.816 49.7313 50.864 49.7313 54.8C49.7313 59.936 47.9553 63.992 44.4033 66.968C40.8993 69.944 34.9233 71.432 26.4753 71.432C25.1313 71.432 23.8353 71.384 22.5873 71.288C21.3393 71.24 20.4513 71.216 19.9233 71.216C18.1953 71.072 16.3233 71 14.3073 71H2.64331V66.248L8.18731 65.456V23.552ZM20.3553 40.616C21.2193 40.712 23.1633 40.76 26.1873 40.76C28.8273 40.76 30.7713 39.872 32.0193 38.096C33.2673 36.272 33.8913 33.728 33.8913 30.464C33.8913 27.44 33.2193 25.232 31.8753 23.84C30.5313 22.448 28.3473 21.752 25.3233 21.752C24.6033 21.752 23.7633 21.8 22.8033 21.896C21.8433 21.944 21.0273 22.016 20.3553 22.112V40.616ZM20.3553 65.888C21.3153 66.272 23.2113 66.464 26.0433 66.464C29.5953 66.464 32.1633 65.528 33.7473 63.656C35.3793 61.784 36.1953 59.072 36.1953 55.52C36.1953 52.16 35.4513 49.76 33.9633 48.32C32.4753 46.88 30.1233 46.16 26.9073 46.16C24.2673 46.16 22.0833 46.208 20.3553 46.304V65.888Z" fill="#3A3A3A"/>
<path d="M65.9317 70.528C62.6677 70.528 59.8997 69.776 57.6277 68.272C55.3877 66.768 53.6917 64.656 52.5397 61.936C51.3877 59.184 50.8117 56 50.8117 52.384C50.8117 48.704 51.4997 45.472 52.8757 42.688C54.2837 39.904 56.2037 37.76 58.6357 36.256C61.0677 34.72 63.8037 33.952 66.8437 33.952C71.8357 33.952 75.6437 35.536 78.2677 38.704C80.9237 41.84 82.2517 46.192 82.2517 51.76C82.2517 55.504 81.5317 58.8 80.0917 61.648C78.6837 64.464 76.7317 66.656 74.2357 68.224C71.7717 69.76 69.0037 70.528 65.9317 70.528ZM66.5557 36.448C63.4517 36.448 61.0037 37.808 59.2117 40.528C57.4197 43.216 56.5237 47.168 56.5237 52.384C56.5237 57.184 57.3877 60.992 59.1157 63.808C60.8757 66.592 63.3237 67.984 66.4597 67.984C69.5317 67.984 71.9637 66.592 73.7557 63.808C75.5797 61.024 76.4917 57.024 76.4917 51.808C76.4917 46.976 75.6277 43.216 73.8997 40.528C72.1717 37.808 69.7237 36.448 66.5557 36.448Z" fill="#7D7D7D"/>
<path d="M98.9317 70.528C95.6677 70.528 92.8997 69.776 90.6277 68.272C88.3877 66.768 86.6917 64.656 85.5397 61.936C84.3877 59.184 83.8117 56 83.8117 52.384C83.8117 48.704 84.4997 45.472 85.8757 42.688C87.2837 39.904 89.2037 37.76 91.6357 36.256C94.0677 34.72 96.8037 33.952 99.8437 33.952C104.836 33.952 108.644 35.536 111.268 38.704C113.924 41.84 115.252 46.192 115.252 51.76C115.252 55.504 114.532 58.8 113.092 61.648C111.684 64.464 109.732 66.656 107.236 68.224C104.772 69.76 102.004 70.528 98.9317 70.528ZM99.5557 36.448C96.4517 36.448 94.0037 37.808 92.2117 40.528C90.4197 43.216 89.5237 47.168 89.5237 52.384C89.5237 57.184 90.3877 60.992 92.1157 63.808C93.8757 66.592 96.3237 67.984 99.4597 67.984C102.532 67.984 104.964 66.592 106.756 63.808C108.58 61.024 109.492 57.024 109.492 51.808C109.492 46.976 108.628 43.216 106.9 40.528C105.172 37.808 102.724 36.448 99.5557 36.448Z" fill="#7D7D7D"/>
<path d="M142.118 70C141.574 70 140.87 69.36 140.006 68.08C139.174 66.768 137.974 64.72 136.406 61.936C136.214 61.584 135.67 60.64 134.774 59.104C133.91 57.536 133.094 56.192 132.326 55.072C131.59 53.952 130.934 53.072 130.358 52.432L125.51 57.904V67.168L129.878 67.648V70H116.39V67.648L120.374 67.168V37.312L116.438 36.736V34.336H129.494V36.736L125.51 37.312V54.112L139.622 37.312L135.59 36.736V34.336H147.446V36.736L143.75 37.312L133.382 48.928C134.502 49.888 135.686 51.28 136.934 53.104C138.214 54.928 139.766 57.28 141.59 60.16C143.158 62.624 144.294 64.384 144.998 65.44C145.734 66.464 146.31 67.024 146.726 67.12L148.982 67.648V70H142.118Z" fill="#7D7D7D"/>
<path d="M78.5771 88.312L74.6891 87.736V85.336H88.4651V87.736L83.7131 88.312V118.168L96.0971 117.736L98.9291 109.672L101.857 110.104L100.177 121H74.5931V118.648L78.5771 118.168V88.312Z" fill="#7D7D7D"/>
<path d="M113.522 121.384C108.818 121.384 105.346 120.136 103.106 117.64C100.898 115.112 99.7944 111.208 99.7944 105.928V88.312L96.3864 87.736V85.336H109.202V87.736L105.122 88.36V106.456C105.122 110.808 105.89 113.944 107.426 115.864C108.994 117.784 111.234 118.744 114.146 118.744C117.058 118.744 119.234 117.72 120.674 115.672C122.146 113.624 122.882 110.648 122.882 106.744V88.36L118.85 87.736V85.336H130.034V87.736L126.53 88.312V106.504C126.53 111.496 125.346 115.224 122.978 117.688C120.61 120.152 117.458 121.384 113.522 121.384Z" fill="#7D7D7D"/>
<path d="M131.262 88.312L127.326 87.736V85.336H133.806C134.894 85.336 136.27 85.272 137.934 85.144C139.47 85.016 140.606 84.952 141.342 84.952C145.758 84.952 148.91 85.64 150.798 87.016C152.718 88.392 153.678 90.408 153.678 93.064C153.678 95.336 153.022 97.288 151.71 98.92C150.398 100.552 148.606 101.576 146.334 101.992C149.406 101.928 151.822 102.648 153.582 104.152C155.342 105.656 156.222 107.704 156.222 110.296C156.222 113.528 155.07 116.168 152.766 118.216C150.494 120.264 146.718 121.288 141.438 121.288C140.286 121.288 139.182 121.24 138.126 121.144C135.63 121.048 134.142 121 133.662 121H127.278V118.648L131.262 118.168V88.312ZM136.35 101.08C136.798 101.112 137.71 101.128 139.086 101.128H141.726C143.966 101.128 145.662 100.504 146.814 99.256C147.966 98.008 148.542 96.232 148.542 93.928C148.542 91.688 147.966 90.056 146.814 89.032C145.662 87.976 143.694 87.448 140.91 87.448C139.758 87.448 138.574 87.512 137.358 87.64L136.35 87.736V101.08ZM136.35 118.312C137.086 118.568 138.75 118.696 141.342 118.696C144.574 118.696 146.91 118.04 148.35 116.728C149.822 115.384 150.558 113.464 150.558 110.968C150.558 108.504 149.918 106.712 148.638 105.592C147.39 104.472 145.358 103.912 142.542 103.912C139.278 103.912 137.214 103.944 136.35 104.008V118.312Z" fill="#7D7D7D"/>
<path d="M57.1965 126.792C51.9165 126.792 47.4045 125.664 43.6605 123.408C39.9645 121.104 37.1565 117.888 35.2365 113.76C33.3165 109.632 32.3565 104.784 32.3565 99.216C32.3565 93.84 33.4845 89.088 35.7405 84.96C37.9965 80.832 41.0925 77.64 45.0285 75.384C48.9645 73.08 53.3805 71.928 58.2765 71.928C61.9725 71.928 66.4125 72.504 71.5965 73.656L73.9725 74.088L73.2525 87.048H68.4285L66.6285 77.904C65.9565 77.328 64.7805 76.848 63.1005 76.464C61.4685 76.032 59.4525 75.816 57.0525 75.816C53.9805 75.816 51.2445 76.704 48.8445 78.48C46.4445 80.208 44.5485 82.776 43.1565 86.184C41.8125 89.592 41.1405 93.672 41.1405 98.424C41.1405 102.936 41.7405 107.04 42.9405 110.736C44.1405 114.432 45.9645 117.384 48.4125 119.592C50.8605 121.752 53.8845 122.832 57.4845 122.832C60.0285 122.832 61.9725 122.616 63.3165 122.184C64.7085 121.752 65.8845 121.128 66.8445 120.312L69.8685 113.256L74.4045 113.832L72.6765 124.056C71.6685 124.104 70.1805 124.44 68.2125 125.064C66.4845 125.592 64.8045 126 63.1725 126.288C61.5885 126.624 59.5965 126.792 57.1965 126.792Z" fill="#3A3A3A"/>
</svg>
